<svg id="Layer_1" data-name="Layer 1" xmlns="http://www.w3.org/2000/svg" viewBox="0 0 559.98 565.91">
  <defs>
    <style>
      .cls-1 {
        fill: #666d78;
      }
    </style>
  </defs>
  <path class="cls-1" d="M436.57,171.86c3.48-15.62-5.75-31.44-21.33-35.94-2.49-.72-4.99-1.11-7.48-1.2h-.02c-.89-.02-1.77-.02-2.66.03h-.1c-.45,0-.9.02-1.35.03-8.45.28-16.71,1.3-24.7,3.04-2.84.61-5.63,1.31-8.39,2.09h-.05c-21.53,4.65-44.48,4.19-67.12-2.36-22.63-6.55-42.28-18.4-58.01-33.82-.02-.01-.03-.03-.05-.05-1.92-2.14-3.91-4.22-5.98-6.25-5.84-5.73-12.25-11-19.25-15.75-.5-.34-1-.67-1.52-1-.44-.3-.88-.59-1.33-.87-9.81-6.32-20.15-11.23-30.76-14.78,6.1-9.87,13.37-18.79,21.57-26.64C241.87,5.96,291.37-8.32,339.67,4.91c.64.18,1.3.36,1.93.54.64.18,1.29.38,1.93.58,47.89,14.59,82.14,53.09,93.39,98.57,2.74,11.02,4.12,22.45,4.02,34.04-.09,10.99-1.5,22.12-4.37,33.21h0Z"/>
  <path class="cls-1" d="M211.85,93.28c-2.32-1.44-4.88-2.59-7.63-3.39-15.17-4.39-30.98,3.51-36.78,17.83-.4.98-.75,1.99-1.05,3.02-.18.65-.35,1.3-.49,1.95l-.03.09c-2.34,8.1-3.9,16.22-4.73,24.31-.3,2.98-.51,5.95-.62,8.91v.05c-2.25,21.84-9.79,43.46-22.98,62.92-13.2,19.47-30.51,34.49-49.99,44.67h-.03s-.02.02-.04.04c-2.66,1.17-5.28,2.44-7.88,3.8-.02.02-.05.02-.07.04-.02,0-.05.02-.08.03-7.18,3.77-14.14,8.22-20.77,13.37-.44.35-.89.7-1.32,1.06-.22.18-.45.34-.66.52-.22.17-.44.35-.65.53-.02.01-.05.04-.06.05-9.03,7.38-16.88,15.69-23.52,24.67-7.5-8.86-13.75-18.53-18.69-28.76-20.68-42.74-18.64-95.04,9.92-137.19,28.57-42.14,76.39-63.41,123.76-60.02,11.32.8,22.62,3.01,33.63,6.69,10.61,3.55,20.95,8.46,30.76,14.78h0v.03Z"/>
  <path class="cls-1" d="M209.29,512.21c-10.74,4.39-21.87,7.34-33.13,8.87-47.04,6.47-96.16-11.65-127.4-51.83-31.24-40.19-36.69-92.24-18.84-136.24,4.26-10.53,9.86-20.59,16.77-29.91,6.64-8.99,14.49-17.3,23.52-24.67-4.41,3.74-7.81,8.79-9.54,14.77-3.59,12.4,1.05,25.24,10.69,32.68.12.09.23.17.35.25.25.18.48.36.74.55.25.18.5.35.74.51.47.34.94.67,1.42.98,7.01,4.75,14.28,8.76,21.76,12.05,0,0,.02,0,.03.02,2.62,1.16,5.28,2.24,7.95,3.2.02,0,.05.02.06.02,20.16,8.89,38.46,22.77,52.93,41.37,14.44,18.58,23.38,39.69,27.04,61.37v.05c.31,2.9.68,5.8,1.18,8.69h0c1.36,8.04,3.45,16.07,6.32,24.01.05.16.11.32.18.48h0c.43,1.46.98,2.88,1.63,4.26,0,.02.02.05.04.08,4.12,10.26,9.38,19.76,15.56,28.42v.02h0Z"/>
  <path class="cls-1" d="M382.45,557.68c-47.87,17.3-99.08,6.4-135.41-24.18-8.69-7.31-16.52-15.75-23.26-25.18-6.18-8.66-11.43-18.15-15.56-28.42,3.62,7.61,10.36,13.69,19.08,16.22,8.72,2.52,17.74.97,24.87-3.57,1.28-.81,2.5-1.71,3.64-2.71.14-.1.28-.22.42-.32,6.65-5.18,12.7-10.83,18.12-16.88,1.99-2.22,3.89-4.49,5.71-6.82,14.68-16.38,33.51-29.46,55.63-37.46,22.16-8.01,45.05-9.98,66.84-6.73h.06c2.78.6,5.6,1.11,8.44,1.53h.03c8.08,1.2,16.37,1.7,24.83,1.42.82-.02,1.64-.06,2.46-.11.41-.02.81-.05,1.21-.08,11.56-.67,22.71-2.75,33.31-6.1.87,11.58.23,23.07-1.78,34.24-8.4,46.75-40.8,87.86-88.67,105.15v-.02l.03.02Z"/>
  <path class="cls-1" d="M495.09,391.08c-9.64,6.01-20.09,10.86-31.16,14.35-10.6,3.34-21.74,5.43-33.31,6.1,12.24-1.04,23.15-9.46,26.76-21.96,1.76-6.07,1.54-12.24-.25-17.83-.09-.28-.19-.56-.28-.83-.25-.73-.5-1.45-.76-2.17-2.85-7.9-6.36-15.37-10.43-22.39-.02-.03-.03-.05-.05-.07-1.49-2.58-3.07-5.11-4.71-7.55-11.04-19.01-17.66-40.94-18.43-64.46-.77-23.55,4.43-45.89,14.22-65.61,0,0,0-.02.01-.03,1.45-2.49,2.81-5.03,4.11-7.63,3.64-7.33,6.68-15.07,9.03-23.21.12-.43.25-.84.36-1.27l.04-.13c.07-.21.13-.41.19-.62.18-.61.33-1.21.46-1.82v-.05c2.88-11.09,4.29-22.23,4.38-33.21,11.27,2.77,22.01,6.92,32.02,12.29,41.87,22.41,70.95,65.94,72.62,116.81,1.66,50.88-24.53,96.2-64.84,121.3h.02Z"/>
</svg>